<?xml version="1.0" encoding="UTF-8"?>
<svg width="90px" height="90px" viewBox="0 0 112 112" version="1.1" xmlns="http://www.w3.org/2000/svg" xmlns:xlink="http://www.w3.org/1999/xlink">
    <title>Ask!</title>
    <g id="页面-1" stroke="none" stroke-width="1" fill="none" fill-rule="evenodd">
        <g id="Products" transform="translate(-478.000000, -1945.000000)">
            <g id="Ask!" transform="translate(478.000000, 1945.000000)">
                <rect id="矩形" x="0" y="0" width="112" height="112"></rect>
                <g transform="translate(7.000000, 11.000000)" fill-rule="nonzero" id="资源-7">
                    <g transform="translate(0.000000, 0.000000)">
                        <path d="M20.262163,11.6030157 L56.0223595,11.6030157 C59.5569819,11.6030157 62.4223595,14.4683933 62.4223595,18.0030157 L62.4223595,71.3121066 C62.4223595,74.846729 59.5569819,77.7121066 56.0223595,77.7121066 L20.262163,77.7121066 C16.7275406,77.7121066 13.862163,74.846729 13.862163,71.3121066 L13.862163,18.0030157 C13.862163,14.4683933 16.7275406,11.6030157 20.262163,11.6030157 Z" id="矩形" stroke="#000072" stroke-width="2" fill="#FFFFFF" transform="translate(38.142261, 44.657561) rotate(-30.000000) translate(-38.142261, -44.657561) "></path>
                        <line x1="17.3366093" y1="42.987715" x2="44.9336609" y2="27.0663391" id="路径" stroke="#000072" stroke-width="2" fill="#00FFFF" stroke-linecap="round"></line>
                        <line x1="23.0859951" y1="52.982801" x2="50.6830467" y2="37.0614251" id="路径" stroke="#000072" stroke-width="2" fill="#00FFFF" stroke-linecap="round"></line>
                        <line x1="28.8353808" y1="62.8894349" x2="56.4324324" y2="46.968059" id="路径" stroke="#000072" stroke-width="2" fill="#00FFFF" stroke-linecap="round"></line>
                        <path d="M34.6014897,9.52972427 L76.9071408,9.52972427 C80.4417632,9.52972427 83.3071408,12.3951019 83.3071408,15.9297243 L83.3071408,73.2280044 C83.3071408,76.7626268 80.4417632,79.6280044 76.9071408,79.6280044 L34.6014897,79.6280044 C31.0668673,79.6280044 28.2014897,76.7626268 28.2014897,73.2280044 L28.2014897,15.9297243 C28.2014897,12.3951019 31.0668673,9.52972427 34.6014897,9.52972427 Z" id="矩形" stroke="#000072" stroke-width="2" fill="#FFFFFF" transform="translate(55.754315, 44.578864) rotate(-30.000000) translate(-55.754315, -44.578864) "></path>
                        <circle id="椭圆形" fill="#FF1E97" cx="83.1449631" cy="58.3783784" r="3.53808354"></circle>
                        <path d="M61.0144584,3.50080869 C62.419354,3.87724936 63.6171684,4.79636464 64.3443959,6.05595966 L93.5778112,56.6897201 C94.2112029,57.7867868 94.3828445,59.0905343 94.0549768,60.3141531 C93.7271091,61.5377719 92.9265894,62.5810296 91.8295227,63.2144213 L53.7584502,85.1947653 C52.6613836,85.828157 51.3576361,85.9997986 50.1340172,85.671931 C48.9103984,85.3440633 47.8671407,84.5435435 47.233749,83.4464769 L18.0003338,32.8127164 C16.4859609,30.1897456 17.384657,26.8357658 20.0076279,25.3213928 L29.656041,19.75101 C31.1957498,20.6884985 33.0041002,21.2285012 34.9385749,21.2285012 C40.55641,21.2285012 45.1105651,16.6743461 45.1105651,11.0565111 L45.1076974,10.828931 L56.8530723,4.04866556 C58.1126674,3.32143803 59.6095627,3.12436803 61.0144584,3.50080869 Z" id="形状结合" fill="#007BD2"></path>
                        <g id="编组" transform="translate(24.766585, 0.884521)" fill="#FFFFFF">
                            <g id="o7oI1n" transform="translate(11.498771, 22.997543)">
                                <path d="M14.2129867,7.8420849 L14.6200101,7.8420849 L25.1736738,31.1214096 L20.1852758,31.1214096 L19.0994781,28.5084201 L9.73331765,28.5084201 L8.64752,31.1214096 L4.06634636,31.1214096 L14.2129867,7.8420849 Z M17.4028439,24.538083 L15.7397766,20.533777 C15.5588773,20.0812609 15.389234,19.6288117 15.2308466,19.1764295 C15.0724593,18.7239133 14.9253949,18.2827201 14.7896534,17.8528498 C14.631266,17.3551758 14.4842016,16.8687577 14.3484602,16.3935956 C14.1902068,16.9593414 14.0432094,17.4571494 13.9074679,17.8870197 C13.7717265,18.3167559 13.6246621,18.7804611 13.4662747,19.2781351 C13.3078873,19.7532972 13.1495,20.1718445 12.9911126,20.533777 L11.3282463,24.538083 L17.4028439,24.538083 Z M33.3432861,31.4269284 C32.2347085,31.4269284 31.2279705,31.3025099 30.3230722,31.0536729 C29.4181738,30.8047019 28.603725,30.4653483 27.8797259,30.035612 C27.1558608,29.6057417 26.5224454,29.0966777 25.9794796,28.5084201 C25.4591596,27.8976505 25.0292894,27.2529121 24.6898687,26.5742048 L28.5585002,24.3344708 C29.0788201,25.1715655 29.6896567,25.8615957 30.3910099,26.4045615 C31.114875,26.9475273 32.0649982,27.2190103 33.2413795,27.2190103 C34.2368615,27.2190103 35.0174083,27.0040751 35.5830201,26.5742048 C36.1712777,26.1216887 36.4654065,25.5560769 36.4654065,24.8773696 C36.4654065,24.0630549 36.1598878,23.4522854 35.5488502,23.045061 C34.9380807,22.6377026 34.0897971,22.1965094 33.0039994,21.7214813 L31.8160942,21.2125513 C30.9564876,20.8504848 30.1760077,20.4545164 29.4746546,20.0246461 C28.7733014,19.5949098 28.1737878,19.0972358 27.6761138,18.5316241 C27.1784398,17.9661463 26.7938613,17.3214079 26.5223784,16.5974088 C26.2508955,15.8734097 26.115154,15.0249921 26.115154,14.052156 C26.115154,13.1699036 26.2735414,12.3441989 26.5903161,11.5750419 C26.9296028,10.805885 27.3933749,10.1385007 27.9816325,9.57288896 C28.5924021,9.00741123 29.3276571,8.566218 30.1873977,8.24930927 C31.0470043,7.93266854 32.0084504,7.77434817 33.0717361,7.77434817 C34.5875381,7.77434817 35.8884049,8.06847699 36.9743365,8.65673463 C38.0827801,9.22221237 39.0329703,10.1949815 39.8249071,11.5750419 L36.1259189,13.9504504 C35.7186945,13.2264513 35.2775683,12.7061314 34.8025402,12.3894907 C34.3273781,12.0727159 33.7505104,11.9143286 33.0719371,11.9143286 C32.370584,11.9143286 31.8162952,12.1066178 31.4090708,12.4911963 C31.0017124,12.8757747 30.7980333,13.3621928 30.7980333,13.9504504 C30.7980333,14.6744495 31.0242913,15.2287383 31.4768075,15.6133168 C31.9519696,15.9752493 32.6985476,16.3824737 33.7165416,16.8349899 L34.9044468,17.3439198 C35.9223067,17.7737901 36.8158821,18.2262393 37.5851731,18.7012674 C38.3769759,19.1537836 39.0330373,19.6741035 39.5533572,20.2622271 C40.096323,20.8278389 40.5035474,21.4839672 40.7750303,22.2306122 C41.0691591,22.9544773 41.2162235,23.8140839 41.2162235,24.8094319 C41.2162235,25.8728517 41.0125443,26.8231088 40.605186,27.6602035 C40.2206075,28.4745182 39.6777087,29.1644815 38.9764895,29.7300932 C38.2751363,30.2957049 37.4380416,30.7255752 36.4652055,31.019704 C35.5151494,31.2911869 34.4745095,31.4269284 33.3432861,31.4269284 L33.3432861,31.4269284 Z" id="形状" transform="translate(22.641285, 19.600638) rotate(-30.000000) translate(-22.641285, -19.600638) "></path>
                            </g>
                        </g>
                        <circle id="椭圆形" fill="#FF1E97" cx="86.6830467" cy="58.3783784" r="3.53808354"></circle>
                    </g>
                </g>
            </g>
        </g>
    </g>
</svg>
